name GIL06_slow2.mot
datacolumns 153
datarows 4
range 0.80000013 0.82500017
endheader

                time	           pelvis_tx	           pelvis_ty	           pelvis_tz	         pelvis_tilt	         pelvis_list	     pelvis_rotation	       hip_flexion_r	     hip_adduction_r	      hip_rotation_r	        knee_angle_r	       ankle_angle_r	    subtalar_angle_r	         mtp_angle_r	       hip_flexion_l	     hip_adduction_l	      hip_rotation_l	        knee_angle_l	       ankle_angle_l	    subtalar_angle_l	         mtp_angle_l	    lumbar_extension	      lumbar_bending	     lumbar_rotation	     ground_force_vx	     ground_force_vy	     ground_force_vz	     ground_force_px	     ground_force_py	     ground_force_pz	     ground_force_vx	     ground_force_vy	     ground_force_vz	     ground_force_px	     ground_force_py	     ground_force_pz	     ground_torque_x	     ground_torque_y	     ground_torque_z	     ground_torque_x	     ground_torque_y	     ground_torque_z	    ground_marker_px	    ground_marker_py	    ground_marker_pz	    ground_marker_px	    ground_marker_py	    ground_marker_pz	    ground_marker_px	    ground_marker_py	    ground_marker_pz	    ground_marker_px	    ground_marker_py	    ground_marker_pz	    ground_marker_px	    ground_marker_py	    ground_marker_pz	    ground_marker_px	    ground_marker_py	    ground_marker_pz	    ground_marker_px	    ground_marker_py	    ground_marker_pz	    ground_marker_px	    ground_marker_py	    ground_marker_pz	    ground_marker_px	    ground_marker_py	    ground_marker_pz	    ground_marker_px	    ground_marker_py	    ground_marker_pz	    ground_marker_px	    ground_marker_py	    ground_marker_pz	    ground_marker_px	    ground_marker_py	    ground_marker_pz	    ground_marker_px	    ground_marker_py	    ground_marker_pz	    ground_marker_px	    ground_marker_py	    ground_marker_pz	    ground_marker_px	    ground_marker_py	    ground_marker_pz	    ground_marker_px	    ground_marker_py	    ground_marker_pz	    ground_marker_px	    ground_marker_py	    ground_marker_pz	    ground_marker_px	    ground_marker_py	    ground_marker_pz	    ground_marker_px	    ground_marker_py	    ground_marker_pz	    ground_marker_px	    ground_marker_py	    ground_marker_pz	    ground_marker_px	    ground_marker_py	    ground_marker_pz	    ground_marker_px	    ground_marker_py	    ground_marker_pz	    ground_marker_px	    ground_marker_py	    ground_marker_pz	    ground_marker_px	    ground_marker_py	    ground_marker_pz	    ground_marker_px	    ground_marker_py	    ground_marker_pz	    ground_marker_px	    ground_marker_py	    ground_marker_pz	    ground_marker_px	    ground_marker_py	    ground_marker_pz	    ground_marker_px	    ground_marker_py	    ground_marker_pz	    ground_marker_px	    ground_marker_py	    ground_marker_pz	    ground_marker_px	    ground_marker_py	    ground_marker_pz	    ground_marker_px	    ground_marker_py	    ground_marker_pz	    ground_marker_px	    ground_marker_py	    ground_marker_pz	    ground_marker_px	    ground_marker_py	    ground_marker_pz	    ground_marker_px	    ground_marker_py	    ground_marker_pz	    ground_marker_px	    ground_marker_py	    ground_marker_pz	    ground_marker_px	    ground_marker_py	    ground_marker_pz	    ground_marker_px	    ground_marker_py	    ground_marker_pz	
          0.80000013	          1.94324934	          0.84061795	         -0.25706193	         -3.70856857	         -4.09158754	          3.04347634	         25.52700043	          6.14923143	          3.82244706	        -18.54315567	         -4.20064306	          0.00000000	          0.00000000	         -4.88334846	         -5.92978001	         -5.92076540	        -34.18174362	         -5.35399246	          0.00000000	          0.00000000	         -8.42709827	          7.00868177	          1.62108040	       -110.39916784	        633.24014088	        -23.35462123	          2.00277026	          0.00000000	         -0.21141061	         19.52126999	        125.80356491	         -6.54038186	          1.59322131	          0.00000000	         -0.29364355	          0.00000000	         -3.55832373	          0.00000000	          0.00000000	         -0.62586115	          0.00000000	          1.83554244	          0.76451039	         -0.24662752	          1.82185841	          0.77223855	         -0.16663644	          1.81090188	          0.76380116	         -0.32164994	          1.95929515	          0.41869104	         -0.19804034	          1.75417101	          0.40364912	         -0.33588147	          1.97758591	          0.06013218	         -0.20861942	          1.50529671	          0.13197085	         -0.30635375	          1.94324934	          0.84061795	         -0.25706193	          1.95193434	          0.84730607	         -0.13418561	          1.93456435	          0.83392984	         -0.37993824	          1.70172930	          0.91255951	         -0.20873898	          1.69569063	          0.90935355	         -0.26333821	          1.97153616	          0.41719377	         -0.12761189	          1.74301112	          0.40819192	         -0.40635893	          1.93887913	          0.42044291	         -0.26914644	          1.76532412	          0.39696091	         -0.24358487	          1.97454047	          0.05884510	         -0.17026164	          1.49088168	          0.14131002	         -0.34192386	          1.97945118	          0.07031812	         -0.24534389	          1.51391757	          0.14794604	         -0.26613647	          1.73967624	          1.33575511	         -0.23614292	          1.86788249	          1.26471579	         -0.20943709	          1.86190128	          1.27057004	         -0.29121771	          1.84723270	          1.26355481	         -0.26177824	          1.89724064	          1.18894398	         -0.26935121	          2.06312656	          0.61056107	         -0.12970944	          1.96133971	          0.55961430	         -0.36284214	          2.01900029	          0.62034535	         -0.14310449	          1.91758144	          0.58188909	         -0.36151490	          2.01950788	          0.54373872	         -0.15492445	          1.88787806	          0.51335812	         -0.35649189	          2.06134057	          0.20809194	         -0.18979749	          1.55432844	          0.21905981	         -0.41683728	          2.01406455	          0.21171701	         -0.19573909	          1.56532764	          0.22903684	         -0.37135988	          2.09003925	          0.04591099	         -0.20440397	          1.56529319	          0.05415516	         -0.31393293	
          0.80833346	          1.95077014	          0.84192163	         -0.25550485	         -3.52314663	         -4.25079203	          2.95592833	         24.74196625	          6.55975246	          4.01799011	        -18.48750114	         -3.72848845	          0.00000000	          0.00000000	         -4.15567541	         -6.63179398	         -5.69268179	        -36.56867599	         -6.91872215	          0.00000000	          0.00000000	         -8.64532185	          7.16210413	          1.45833623	       -111.14162715	        658.60898800	        -23.04517128	          2.00422437	          0.00000000	         -0.21146419	         13.77816800	         94.39151222	         -6.28845756	          1.59598804	          0.00000000	         -0.29208463	          0.00000000	         -3.82444434	          0.00000000	          0.00000000	         -0.38925586	          0.00000000	          1.84331155	          0.76554018	         -0.24490762	          1.82954311	          0.77341533	         -0.16495542	          1.81872725	          0.76446319	         -0.31994992	          1.96292400	          0.41888437	         -0.19739507	          1.76729906	          0.40208074	         -0.33792520	          1.97769248	          0.06013403	         -0.20866325	          1.51255059	          0.13717629	         -0.30591223	          1.95077014	          0.84192163	         -0.25550485	          1.95933509	          0.84901071	         -0.13276719	          1.94220519	          0.83483255	         -0.37824249	          1.70906532	          0.91316032	         -0.20766941	          1.70317304	          0.90977228	         -0.26210332	          1.97544980	          0.41715765	         -0.12702198	          1.75647032	          0.40711433	         -0.40842095	          1.94140661	          0.42209440	         -0.26909119	          1.77954078	          0.39419359	         -0.24570823	          1.97474575	          0.05880772	         -0.17029910	          1.49828207	          0.14659457	         -0.34152061	          1.97921979	          0.07061383	         -0.24537054	          1.52187765	          0.15271477	         -0.26585200	          1.74722457	          1.33686423	         -0.23515873	          1.87552035	          1.26613212	         -0.20845847	          1.86986148	          1.27191269	         -0.29071432	          1.85473549	          1.26463294	         -0.26094279	          1.90529859	          1.19037426	         -0.26837671	          2.06920528	          0.60974658	         -0.12917289	          1.97259474	          0.56156689	         -0.36228853	          2.02530217	          0.62058210	         -0.14266795	          1.92844403	          0.58310694	         -0.36096877	          2.02430344	          0.54330099	         -0.15468207	          1.90038002	          0.51448166	         -0.35680443	          2.06308079	          0.20719662	         -0.18980299	          1.56318355	          0.22202151	         -0.41712180	          2.01571441	          0.21141836	         -0.19534926	          1.57457244	          0.23164086	         -0.37175387	          2.09010839	          0.04572561	         -0.20445471	          1.56885624	          0.05594736	         -0.31330380	
          0.81666678	          1.95812964	          0.84316576	         -0.25395876	         -3.34664822	         -4.36771202	          2.89561558	         23.92244720	          6.90775681	          4.23873138	        -18.31593132	         -3.33237147	          0.00000000	          0.00000000	         -3.37969685	         -7.28712225	         -5.43210411	        -38.97023773	         -8.39525032	          0.00000000	          0.00000000	         -8.65279770	          6.96458197	          1.35839820	       -111.11018936	        684.71332944	        -22.84510539	          2.00522339	          0.00000000	         -0.21145667	         10.02663995	         67.61835830	         -5.41091718	          1.59910754	          0.00000000	         -0.29085837	          0.00000000	         -4.02456128	          0.00000000	          0.00000000	         -0.24698932	          0.00000000	          1.85090947	          0.76651168	         -0.24323183	          1.83707690	          0.77448034	         -0.16331205	          1.82636249	          0.76514602	         -0.31829104	          1.96613348	          0.41898623	         -0.19667712	          1.78053951	          0.40058509	         -0.34004855	          1.97784472	          0.06014324	         -0.20869593	          1.52031696	          0.14254658	         -0.30540287	          1.95812964	          0.84316576	         -0.25395876	          1.96660721	          0.85055143	         -0.13133377	          1.94965208	          0.83578014	         -0.37658378	          1.71628845	          0.91370970	         -0.20654771	          1.71053433	          0.91015774	         -0.26080668	          1.97895026	          0.41703978	         -0.12636220	          1.77002621	          0.40611443	         -0.41055495	          1.94469285	          0.42223954	         -0.26813391	          1.79580069	          0.38908571	         -0.24774830	          1.97492063	          0.05876287	         -0.17033197	          1.50617528	          0.15202232	         -0.34104651	          1.97877777	          0.07103103	         -0.24535173	          1.52998745	          0.15858209	         -0.26545990	          1.75451362	          1.33765101	         -0.23405445	          1.88302958	          1.26769018	         -0.20746194	          1.87745023	          1.27298355	         -0.29011640	          1.86215103	          1.26571345	         -0.26016954	          1.91322303	          1.19172382	         -0.26706448	          2.07496929	          0.60870183	         -0.12866504	          1.98393214	          0.56366074	         -0.36181396	          2.03076792	          0.62018472	         -0.14210588	          1.93842924	          0.58394617	         -0.36001128	          2.02906919	          0.54265743	         -0.15412936	          1.91283488	          0.51533324	         -0.35700014	          2.06464148	          0.20632583	         -0.18959190	          1.57238412	          0.22508667	         -0.41735101	          2.01694775	          0.21108000	         -0.19461809	          1.58404517	          0.23507725	         -0.37238514	          2.09016871	          0.04555289	         -0.20451045	          1.57291090	          0.05809961	         -0.31273347	
          0.82500017	          1.96533263	          0.84431630	         -0.25243005	         -3.18528652	         -4.43967819	          2.86238122	         23.09084702	          7.18843746	          4.46412992	        -18.06107521	         -2.99234533	          0.00000000	          0.00000000	         -2.54812145	         -7.88132668	         -5.15476608	        -41.37589264	         -9.73241806	          0.00000000	          0.00000000	         -8.64946079	          7.34680080	          1.63330650	       -110.04860542	        710.61699782	        -22.87640902	          2.00586072	          0.00000000	         -0.21139636	          6.93587216	         46.07127120	         -3.50486087	          1.60295959	          0.00000000	         -0.29037955	          0.00000000	         -4.16521094	          0.00000000	          0.00000000	         -0.15786536	          0.00000000	          1.85833752	          0.76739258	         -0.24160168	          1.84445620	          0.77540845	         -0.16171697	          1.83380413	          0.76583213	         -0.31668553	          1.96901786	          0.41902992	         -0.19589205	          1.79390252	          0.39919296	         -0.34219426	          1.97803533	          0.06015856	         -0.20871450	          1.52861130	          0.14801866	         -0.30484247	          1.96533263	          0.84431630	         -0.25243005	          1.97375584	          0.85188884	         -0.12988700	          1.95690942	          0.83674377	         -0.37497309	          1.72338736	          0.91420966	         -0.20539585	          1.71775341	          0.91050452	         -0.25949371	          1.98210990	          0.41686845	         -0.12563412	          1.78366899	          0.40521219	         -0.41270164	          1.94797409	          0.42161772	         -0.26678666	          1.81039751	          0.38537514	         -0.25047302	          1.97507405	          0.05871360	         -0.17035574	          1.51457989	          0.15753341	         -0.34051928	          1.97948337	          0.07084266	         -0.24535699	          1.53875494	          0.16407651	         -0.26501644	          1.76171041	          1.33820617	         -0.23306644	          1.89044285	          1.26850367	         -0.20702787	          1.88460469	          1.27427554	         -0.28943628	          1.86946535	          1.26672137	         -0.25942227	          1.92068624	          1.19299090	         -0.26709372	          2.08044386	          0.60747278	         -0.12813514	          1.99530888	          0.56593031	         -0.36143199	          2.03597546	          0.61875677	         -0.14157116	          1.94898915	          0.58433479	         -0.35945779	          2.03371978	          0.54207772	         -0.15332432	          1.92520404	          0.51613677	         -0.35753733	          2.06603837	          0.20546822	         -0.18920846	          1.58196223	          0.22823444	         -0.41752189	          2.01828671	          0.21060194	         -0.19445601	          1.59403384	          0.23835084	         -0.37270793	          2.09022999	          0.04539594	         -0.20456739	          1.57756579	          0.06058862	         -0.31225118	
